#!OML:ASF F:\VICON\USERDATA\INSTALL\rory3\rory3.ASF
:FULLY-SPECIFIED
:DEGREES
1769
root 1.91576 10.9812 -4.85681 -177.608 171.486 -181.668
lowerback 35.0371 1.14199 -0.48015
upperback 12.5083 1.48723 1.42359
thorax -3.98155 0.705495 1.2369
lowerneck -16.8991 0.450891 -11.7005
upperneck 30.5025 5.8234 -4.02047
head 12.9979 0.70884 1.35068
rclavicle -1.74931e-014 -3.83654e-014
rhumerus -37.86 30.9424 -79.5158
rradius 106.971
rwrist 43.6906
rhand -37.8349 10.3399
rfingers 7.12502
rthumb -10.88 -19.3582
lclavicle -1.74931e-014 -3.83654e-014
lhumerus -36.1728 -25.2453 86.1298
lradius 101.597
lwrist -27.2081
lhand -45.6568 11.0471
lfingers 7.12502
lthumb -18.4155 40.1954
rfemur -71.2339 -25.9949 5.62921
rtibia 110.016
rfoot -27.3059 -14.4847
rtoes -7.38483
lfemur -88.488 15.7008 -20.0064
ltibia 103.045
lfoot -14.9577 -19.8986
ltoes -8.00065
1770
root 1.90809 10.9446 -4.86631 -178.031 171.068 -181.88
lowerback 35.0624 1.14418 -0.530782
upperback 12.4967 1.47444 1.35036
thorax -4.00123 0.702671 1.19081
lowerneck -16.8573 0.480606 -11.6269
upperneck 30.5102 5.81055 -3.93207
head 12.9873 0.723859 1.37046
rclavicle -2.70347e-014 -1.77912e-014
rhumerus -37.7459 30.7834 -79.6582
rradius 106.575
rwrist 43.6689
rhand -37.8514 10.3726
rfingers 7.12502
rthumb -10.8959 -19.3247
lclavicle -2.70347e-014 -1.77912e-014
lhumerus -36.2692 -25.2738 86.0648
lradius 101.626
lwrist -27.3572
lhand -45.7109 11.3497
lfingers 7.12502
lthumb -18.4676 40.4931
rfemur -70.7973 -26.1622 5.58998
rtibia 110.342
rfoot -27.3565 -14.7756
rtoes -6.24773
lfemur -88.4764 15.7616 -19.9583
ltibia 103.302
lfoot -15.2346 -20.1925
ltoes -8.52626
1771
root 1.90229 10.9023 -4.87235 -178.377 170.626 -181.963
lowerback 34.9984 1.16974 -0.658031
upperback 12.4684 1.46587 1.26375
thorax -4.00911 0.700815 1.17061
lowerneck -16.7599 0.488068 -11.5793
upperneck 30.4685 5.78498 -3.91622
head 12.9494 0.725857 1.36357
rclavicle 1.40143e-014 -1.48592e-014
rhumerus -37.7664 30.5221 -79.8251
rradius 106.171
rwrist 43.7298
rhand -37.8409 10.559
rfingers 7.12502
rthumb -10.8859 -19.1389
lclavicle 1.40143e-014 -1.48592e-014
lhumerus -36.3318 -25.4785 86.033
lradius 101.653
lwrist -27.463
lhand -45.5699 11.3787
lfingers 7.12502
lthumb -18.332 40.5349
rfemur -70.4655 -26.4823 5.43073
rtibia 110.746
rfoot -27.5098 -14.9991
rtoes -6.35579
lfemur -88.494 15.6835 -20.011
ltibia 103.536
lfoot -15.4864 -20.4267
ltoes -9.73381
1772
root 1.8877 10.8446 -4.8804 -178.721 169.967 -182.178
lowerback 34.9254 1.06119 -0.69697
upperback 12.4719 1.32772 1.24534
thorax -3.97657 0.636936 1.21906
lowerneck -16.7531 0.512804 -11.7628
upperneck 30.4573 5.82062 -3.7424
head 12.9292 0.74468 1.46572
rclavicle -2.11954e-014 5.34234e-015
rhumerus -37.6965 30.4207 -79.8587
rradius 105.878
rwrist 43.5942
rhand -37.7091 10.5758
rfingers 7.12502
rthumb -10.7587 -19.1287
lclavicle -2.11954e-014 5.34234e-015
lhumerus -36.2432 -25.6914 85.7967
lradius 101.75
lwrist -27.309
lhand -45.1734 11.3548
lfingers 7.12502
lthumb -17.9505 40.5464
rfemur -70.1926 -27.0485 5.43267
rtibia 111.219
rfoot -27.7018 -15.1317
rtoes -6.45787
lfemur -88.6814 15.3684 -19.8577
ltibia 103.765
lfoot -15.5064 -20.6665
ltoes -10.8293
1773
root 1.86719 10.7811 -4.89705 -179.044 169.146 -182.428
lowerback 34.9366 0.973888 -0.599016
upperback 12.4357 1.25922 1.19383
thorax -4.01476 0.612994 1.13583
lowerneck -16.7462 0.444462 -11.6727
upperneck 30.4656 5.63643 -3.54976
head 12.9277 0.700353 1.49773
rclavicle 1.04362e-015 -6.1996e-015
rhumerus -37.6822 30.0228 -79.931
rradius 105.62
rwrist 43.3536
rhand -37.5359 10.508
rfingers 7.12502
rthumb -10.5916 -19.2051
lclavicle 1.04362e-015 -6.1996e-015
lhumerus -35.9861 -26.3277 85.4765
lradius 101.87
lwrist -26.9152
lhand -45.0123 11.5312
lfingers 7.12502
lthumb -17.7955 40.7369
rfemur -70.0585 -27.8939 5.54973
rtibia 111.723
rfoot -27.8038 -15.2862
rtoes -6.49857
lfemur -89.0469 14.9573 -19.7313
ltibia 103.984
lfoot -15.3388 -21.0756
ltoes -11.309
1774
root 1.86219 10.7445 -4.89645 -179.473 169.192 -182.555
lowerback 34.7791 1.21454 -0.872592
upperback 12.4908 1.45843 1.03334
thorax -3.90462 0.707068 1.04837
lowerneck -16.7955 0.409898 -11.6878
upperneck 30.5184 5.53173 -3.31453
head 12.9503 0.67974 1.57635
rclavicle 1.35671e-014 1.87355e-014
rhumerus -37.6747 29.7909 -80.1033
rradius 105.265
rwrist 43.1649
rhand -37.6267 10.5148
rfingers 7.12502
rthumb -10.6792 -19.1938
lclavicle 1.35671e-014 1.87355e-014
lhumerus -35.9065 -26.7021 85.1819
lradius 102.003
lwrist -26.8623
lhand -45.0196 11.5716
lfingers 7.12502
lthumb -17.8025 40.7767
rfemur -69.8237 -27.745 5.51755
rtibia 112.059
rfoot -27.971 -15.3744
rtoes -5.85123
lfemur -88.9633 15.4704 -19.7089
ltibia 104.234
lfoot -15.0776 -21.6208
ltoes -9.89698
1775
root 1.84694 10.704 -4.91537 -179.931 168.758 -182.642
lowerback 35.0158 1.30741 -1.09979
upperback 12.3867 1.4967 0.923991
thorax -4.10138 0.726166 1.03624
lowerneck -16.6073 0.394592 -11.5574
upperneck 30.5005 5.41636 -3.23886
head 12.9042 0.660103 1.5643
rclavicle 9.93923e-017 1.0635e-014
rhumerus -37.7956 29.4742 -80.2821
rradius 104.942
rwrist 43.0784
rhand -37.5836 10.8408
rfingers 7.12502
rthumb -10.6376 -18.87
lclavicle 9.93923e-017 1.0635e-014
lhumerus -35.9308 -27.0541 85.0657
lradius 102.067
lwrist -27.0794
lhand -45.0339 11.4771
lfingers 7.12502
lthumb -17.8163 40.6809
rfemur -69.4446 -28.0066 5.32704
rtibia 112.433
rfoot -28.3434 -15.3242
rtoes -5.93172
lfemur -88.8777 15.4148 -19.7414
ltibia 104.394
lfoot -14.4116 -22.0383
ltoes -7.17594
1776
root 1.83691 10.6661 -4.92997 -180.397 168.398 -182.745
lowerback 35.1272 1.41837 -1.24383
upperback 12.3355 1.58128 0.784958
thorax -4.19555 0.770622 0.935756
lowerneck -16.4507 0.329231 -11.4271
upperneck 30.5634 5.24759 -3.16968
head 12.902 0.610799 1.543
rclavicle 3.97569e-016 1.60022e-014
rhumerus -37.9439 29.0474 -80.4374
rradius 104.655
rwrist 43.0571
rhand -37.475 11.1966
rfingers 7.12502
rthumb -10.5329 -18.5195
lclavicle 3.97569e-016 1.60022e-014
lhumerus -35.8715 -27.6235 84.9208
lradius 102.289
lwrist -26.9749
lhand -45.0738 11.5549
lfingers 7.12502
lthumb -17.8547 40.7553
rfemur -69.0368 -28.1919 5.16877
rtibia 112.762
rfoot -28.6456 -15.4828
rtoes -6.93103
lfemur -88.7768 15.409 -19.6962
ltibia 104.599
lfoot -13.9338 -22.5479
ltoes -6.77662
1777
root 1.82639 10.6295 -4.9421 -180.956 168.145 -182.979
lowerback 35.2292 1.58803 -1.40315
upperback 12.2128 1.73812 0.754468
thorax -4.36961 0.845277 0.930801
lowerneck -15.9233 0.313022 -11.2615
upperneck 30.5263 5.1049 -3.20674
head 12.7844 0.577348 1.47354
rclavicle -9.34288e-015 9.14409e-015
rhumerus -38.3193 28.8354 -80.588
rradius 104.328
rwrist 43.0452
rhand -37.491 11.207
rfingers 7.12502
rthumb -10.5483 -18.5083
lclavicle -9.34288e-015 9.14409e-015
lhumerus -35.981 -28.21 84.9954
lradius 102.408
lwrist -26.8302
lhand -45.1894 11.1959
lfingers 7.12502
lthumb -17.9659 40.3861
rfemur -68.6203 -28.2878 5.15824
rtibia 113.065
rfoot -28.8086 -15.6643
rtoes -6.62435
lfemur -88.6125 15.4936 -19.4764
ltibia 104.828
lfoot -14.0263 -22.9617
ltoes -6.68962
